<svg xmlns="http://www.w3.org/2000/svg" width="48" height="48" viewBox="0 0 48 48" fill="none">
  <circle cx="24" cy="24" r="24" fill="#C0C4D4" fill-opacity="0.67"/>
  <path fill-rule="evenodd" clip-rule="evenodd" d="M12 12.75C12 12.3358 12.3358 12 12.75 12H35.25C35.6642 12 36 12.3358 36 12.75V35.25C36 35.6642 35.6642 36 35.25 36H12.75C12.3358 36 12 35.6642 12 35.25V12.75ZM13.875 13.875V34.125H34.125V13.875H13.875Z" fill="white" fill-opacity="0.74"/>
  <path fill-rule="evenodd" clip-rule="evenodd" d="M24.5625 16.125C24.7696 16.125 24.9375 16.2929 24.9375 16.5V31.5C24.9375 31.7071 24.7696 31.875 24.5625 31.875H23.4375C23.2304 31.875 23.0625 31.7071 23.0625 31.5V16.5C23.0625 16.2929 23.2304 16.125 23.4375 16.125H24.5625ZM18.75 21.375C18.9571 21.375 19.125 21.5429 19.125 21.75V31.5C19.125 31.7071 18.9571 31.875 18.75 31.875H17.625C17.4179 31.875 17.25 31.7071 17.25 31.5V21.75C17.25 21.5429 17.4179 21.375 17.625 21.375H18.75ZM30.375 25.125C30.5821 25.125 30.75 25.2929 30.75 25.5V31.5C30.75 31.7071 30.5821 31.875 30.375 31.875H29.25C29.0429 31.875 28.875 31.7071 28.875 31.5V25.5C28.875 25.2929 29.0429 25.125 29.25 25.125H30.375Z" fill="white" fill-opacity="0.74"/>
</svg>