<svg width="18" height="28" viewBox="0 0 18 28" fill="none" xmlns="http://www.w3.org/2000/svg">
<path d="M15.5051 27.3346C15.8942 27.3353 16.2731 27.2183 16.5848 27.0011C16.8965 26.7839 17.1242 26.4783 17.2336 26.1302C17.3431 25.7822 17.3284 25.4104 17.1917 25.0708C17.0551 24.7311 16.8039 24.442 16.4759 24.2468C12.1726 21.7977 8.26568 18.7898 4.87272 15.3137C4.6762 15.1498 4.519 14.9491 4.41137 14.7247C4.30374 14.5003 4.2481 14.2573 4.2481 14.0115C4.2481 13.7657 4.30374 13.5227 4.41137 13.2983C4.519 13.074 4.6762 12.8733 4.87272 12.7094C8.26677 9.23295 12.1735 6.22357 16.4759 3.77145C16.6796 3.65485 16.8564 3.50154 16.9958 3.32049C17.1352 3.13944 17.2345 2.93429 17.2878 2.71705C17.3411 2.4998 17.3473 2.27483 17.3062 2.0553C17.2651 1.83577 17.1774 1.6261 17.0482 1.43855C16.9191 1.251 16.7511 1.08934 16.5541 0.963042C16.3571 0.836743 16.1351 0.748339 15.901 0.703005C15.6669 0.657671 15.4254 0.656317 15.1908 0.699023C14.9561 0.741729 14.7329 0.827637 14.5343 0.951718C9.98854 3.55527 5.85787 6.74126 2.26343 10.4162C1.75713 10.8875 1.35548 11.4472 1.08143 12.0633C0.807394 12.6794 0.66634 13.3398 0.666339 14.0067C0.666339 14.6737 0.807393 15.3341 1.08143 15.9501C1.35547 16.5662 1.75713 17.1259 2.26342 17.5972C5.85717 21.2756 9.98788 24.4648 14.5343 27.0713C14.8247 27.2429 15.1613 27.3342 15.5051 27.3346Z" fill="#253851"/>
</svg>
