<svg xmlns="http://www.w3.org/2000/svg" width="32" height="32" viewBox="0 0 32 32" fill="none">
  <rect width="32" height="32" rx="4" fill="white"/>
  <path d="M22.5054 23.4417L12.6743 26.9272C12.6306 26.9427 12.5844 26.9494 12.5382 26.947C12.4919 26.9446 12.4466 26.9331 12.4048 26.9132C12.3198 26.8691 12.255 26.7939 12.2242 26.7032L10.9641 23.1387H8.41708C8.22242 23.1387 8.04442 23.0001 8.04442 22.8055V9.94521C8.04809 9.86464 8.07849 9.78758 8.13082 9.72619L10.2464 7.06164C10.2803 7.0195 10.323 6.9854 10.3717 6.96178C10.4203 6.93817 10.4735 6.92562 10.5276 6.92505H14.1823C14.1963 6.92505 14.2103 6.8895 14.2245 6.87042C14.7452 6.17057 15.3833 5.61784 16.0208 5.31097C16.732 4.96867 17.3734 4.9669 17.8268 5.30427C18.2802 5.64164 18.462 6.25719 18.3385 7.0367C18.2667 7.45511 18.1346 7.86091 17.9464 8.24147L19.1196 9.72628C19.1677 9.78902 19.193 9.86621 19.1914 9.94521V13.0642L22.7154 22.9917C22.7313 23.035 22.7385 23.081 22.7365 23.1271C22.7345 23.1733 22.7235 23.2185 22.7039 23.2603C22.6844 23.3022 22.6568 23.3397 22.6227 23.3708C22.5887 23.4019 22.5488 23.426 22.5054 23.4417ZM17.406 5.86713C16.98 5.55017 15.9745 5.91146 15.0845 6.92483H16.7368C16.7901 6.92545 16.8426 6.93804 16.8904 6.96168C16.9382 6.98533 16.9801 7.01941 17.013 7.06142L17.451 7.61397C17.7698 6.79406 17.7322 6.10973 17.406 5.86713ZM18.4864 10.068L17.5665 8.90267C17.4995 9.00489 17.4314 9.10623 17.3572 9.20598C16.8365 9.90587 16.1996 10.4603 15.562 10.7671C15.4254 10.8334 15.2838 10.8889 15.1386 10.9331C15.0895 11.3011 14.9073 11.6384 14.6264 11.8811C14.3456 12.1239 13.9855 12.2554 13.6142 12.2506C13.243 12.2459 12.8864 12.1054 12.6118 11.8555C12.3371 11.6057 12.1636 11.2639 12.1239 10.8947C12.0842 10.5256 12.1811 10.1547 12.3964 9.85223C12.6116 9.54972 12.9302 9.33655 13.2919 9.25301C13.6537 9.16948 14.0335 9.22138 14.3595 9.3989C14.6856 9.57641 14.9353 9.86724 15.0615 10.2164C15.5921 10.0187 16.2343 9.53705 16.7938 8.78521C16.906 8.63347 17.0104 8.47613 17.1066 8.31377L16.5667 7.62979H10.6979L8.74924 10.068V22.4339H18.4864V10.068ZM13.2675 10.0063C13.1487 10.0657 13.0461 10.1533 12.9689 10.2615C12.8916 10.3696 12.842 10.495 12.8244 10.6267C12.8067 10.7584 12.8215 10.8924 12.8675 11.0171C12.9136 11.1418 12.9894 11.2533 13.0884 11.3419C13.1874 11.4306 13.3066 11.4936 13.4356 11.5256C13.5645 11.5576 13.6994 11.5576 13.8284 11.5255C13.9573 11.4935 14.0765 11.4303 14.1754 11.3416C14.2744 11.2529 14.3502 11.1414 14.3961 11.0167C14.1651 10.9957 13.9442 10.912 13.7572 10.7747C13.5148 10.5943 13.3494 10.3326 13.2675 10.0062V10.0063ZM14.1779 10.209C14.2175 10.2378 14.261 10.2609 14.3071 10.2773C14.2333 10.1687 14.1345 10.0793 14.019 10.0168C14.0566 10.0921 14.111 10.1579 14.1779 10.2091V10.209ZM19.1914 15.1739V22.8055C19.192 22.8504 19.1834 22.8948 19.1662 22.9362C19.149 22.9776 19.1236 23.0151 19.0914 23.0463C19.0592 23.0775 19.021 23.1018 18.9791 23.1177C18.9372 23.1336 18.8925 23.1408 18.8477 23.1388H11.7119L12.7709 26.1354L21.9332 22.8902L19.1914 15.1739Z" fill="black"/>
  <path d="M10.0802 20.8047H17.1871C17.2806 20.8047 17.3702 20.8418 17.4363 20.9079C17.5024 20.974 17.5396 21.0637 17.5396 21.1572C17.5396 21.2506 17.5024 21.3403 17.4363 21.4064C17.3702 21.4725 17.2806 21.5096 17.1871 21.5096H10.0802C9.98675 21.5096 9.8971 21.4725 9.831 21.4064C9.76489 21.3403 9.72776 21.2506 9.72776 21.1572C9.72776 21.0637 9.76489 20.974 9.831 20.9079C9.8971 20.8418 9.98675 20.8047 10.0802 20.8047Z" fill="black"/>
  <path d="M10.0802 19.1289H17.1871C17.2806 19.1289 17.3702 19.166 17.4363 19.2321C17.5024 19.2982 17.5396 19.3879 17.5396 19.4814C17.5396 19.5749 17.5024 19.6645 17.4363 19.7306C17.3702 19.7967 17.2806 19.8339 17.1871 19.8339H10.0802C9.98675 19.8339 9.8971 19.7967 9.831 19.7306C9.76489 19.6645 9.72776 19.5749 9.72776 19.4814C9.72776 19.3879 9.76489 19.2982 9.831 19.2321C9.8971 19.166 9.98675 19.1289 10.0802 19.1289Z" fill="black"/>
</svg>