<svg width="40" height="47" viewBox="0 0 40 47" fill="none" xmlns="http://www.w3.org/2000/svg">
<path d="M0.552775 39.0023C0.762822 42.6483 3.61942 45.5825 7.26172 45.8483C15.9334 46.4811 24.0665 46.4811 32.7382 45.8483C36.3805 45.5825 39.2371 42.6483 39.4472 39.0023C40.0501 28.537 40.0501 18.4656 39.4472 8.00027C39.2371 4.35433 36.3805 1.42012 32.7382 1.15432C24.0665 0.521478 15.9334 0.521478 7.26172 1.15432C3.61941 1.42012 0.76282 4.35433 0.552774 8.00027C-0.0501437 18.4656 -0.0501433 28.537 0.552775 39.0023Z" fill="url(#paint0_linear_1821_1479)"/>
<path d="M39.85 18.3982H0.150391C0.217154 14.9566 0.351361 11.5005 0.553011 8.00027C0.763058 4.35433 3.61965 1.42012 7.26196 1.15432C15.9337 0.521478 24.0667 0.521478 32.7385 1.15432C36.3808 1.42012 39.2374 4.35432 39.4474 8.00027C39.6491 11.5005 39.7833 14.9566 39.85 18.3982Z" fill="#019EEC"/>
<path d="M24.9756 9.53516H30.1749" stroke="white" stroke-width="5.67857" stroke-linecap="round" stroke-linejoin="round"/>
<circle cx="10.1791" cy="27.976" r="2.83929" fill="#019EEC"/>
<circle cx="10.1791" cy="36.851" r="2.83929" fill="#019EEC"/>
<circle cx="19.9994" cy="27.976" r="2.83929" fill="#019EEC"/>
<circle cx="19.9994" cy="36.851" r="2.83929" fill="#019EEC"/>
<circle cx="29.8207" cy="27.976" r="2.83929" fill="#019EEC"/>
<circle cx="29.8207" cy="36.851" r="2.83929" fill="#019EEC"/>
<defs>
<linearGradient id="paint0_linear_1821_1479" x1="20" y1="0.679687" x2="20" y2="46.3229" gradientUnits="userSpaceOnUse">
<stop stop-color="white"/>
<stop offset="1" stop-color="#D7F2FF"/>
</linearGradient>
</defs>
</svg>
