<svg xmlns="http://www.w3.org/2000/svg" width="32" height="32" viewBox="0 0 32 32" fill="none">
  <rect width="32" height="32" rx="4" fill="white"/>
  <path d="M11.2166 12.8125C11.2758 12.8125 11.3345 12.8241 11.3893 12.8468C11.444 12.8694 11.4938 12.9027 11.5357 12.9446C11.5776 12.9865 11.6108 13.0362 11.6335 13.0909C11.6561 13.1457 11.6678 13.2044 11.6677 13.2636V14.1659C11.6677 14.2855 11.6202 14.4003 11.5356 14.4849C11.451 14.5695 11.3362 14.617 11.2166 14.617C11.097 14.617 10.9822 14.5695 10.8976 14.4849C10.813 14.4003 10.7655 14.2855 10.7655 14.1659V13.2636C10.7654 13.2044 10.7771 13.1457 10.7997 13.0909C10.8224 13.0362 10.8556 12.9865 10.8975 12.9446C10.9394 12.9027 10.9892 12.8694 11.0439 12.8468C11.0987 12.8241 11.1573 12.8125 11.2166 12.8125Z" fill="black"/>
  <path d="M11.2166 15.5195C11.2758 15.5195 11.3345 15.5311 11.3893 15.5538C11.444 15.5765 11.4938 15.6097 11.5357 15.6516C11.5776 15.6935 11.6108 15.7432 11.6335 15.798C11.6561 15.8527 11.6678 15.9114 11.6677 15.9707V16.8729C11.6677 16.9926 11.6202 17.1073 11.5356 17.1919C11.451 17.2765 11.3362 17.324 11.2166 17.324C11.097 17.324 10.9822 17.2765 10.8976 17.1919C10.813 17.1073 10.7655 16.9926 10.7655 16.8729V15.9707C10.7654 15.9114 10.7771 15.8527 10.7997 15.798C10.8224 15.7432 10.8556 15.6935 10.8975 15.6516C10.9394 15.6097 10.9892 15.5765 11.0439 15.5538C11.0987 15.5311 11.1573 15.5195 11.2166 15.5195Z" fill="black"/>
  <path d="M11.2166 18.2256C11.2758 18.2256 11.3345 18.2372 11.3893 18.2599C11.444 18.2825 11.4938 18.3157 11.5357 18.3576C11.5776 18.3995 11.6108 18.4493 11.6335 18.504C11.6561 18.5588 11.6678 18.6175 11.6677 18.6767V19.579C11.6677 19.6986 11.6202 19.8134 11.5356 19.898C11.451 19.9826 11.3362 20.0301 11.2166 20.0301C11.097 20.0301 10.9822 19.9826 10.8976 19.898C10.813 19.8134 10.7655 19.6986 10.7655 19.579V18.6767C10.7654 18.6175 10.7771 18.5588 10.7997 18.504C10.8224 18.4493 10.8556 18.3995 10.8975 18.3576C10.9394 18.3157 10.9892 18.2825 11.0439 18.2599C11.0987 18.2372 11.1573 18.2256 11.2166 18.2256Z" fill="black"/>
  <path d="M6.61686 14.6528C6.51489 14.6322 6.4232 14.577 6.35734 14.4964C6.29149 14.4159 6.25554 14.315 6.2556 14.211V10.5566C6.25556 10.4973 6.26721 10.4387 6.28987 10.3839C6.31253 10.3292 6.34575 10.2794 6.38765 10.2375C6.42955 10.1956 6.4793 10.1624 6.53405 10.1397C6.58879 10.1171 6.64747 10.1054 6.70673 10.1055H25.6541C25.7133 10.1054 25.772 10.1171 25.8268 10.1397C25.8815 10.1624 25.9313 10.1956 25.9732 10.2375C26.0151 10.2794 26.0483 10.3292 26.071 10.3839C26.0936 10.4387 26.1053 10.4973 26.1052 10.5566V14.211C26.1053 14.315 26.0693 14.4159 26.0035 14.4964C25.9376 14.577 25.8459 14.6322 25.744 14.6528C25.3364 14.7362 24.9702 14.9577 24.7072 15.2799C24.4442 15.6021 24.3005 16.0053 24.3005 16.4213C24.3005 16.8372 24.4442 17.2404 24.7072 17.5626C24.9702 17.8848 25.3364 18.1064 25.744 18.1897C25.8459 18.2103 25.9376 18.2656 26.0035 18.3461C26.0693 18.4266 26.1053 18.5275 26.1052 18.6315V22.2859C26.1053 22.3452 26.0936 22.4039 26.071 22.4586C26.0483 22.5134 26.0151 22.5631 25.9732 22.605C25.9313 22.6469 25.8815 22.6801 25.8268 22.7028C25.772 22.7254 25.7133 22.7371 25.6541 22.737H6.70673C6.64747 22.7371 6.58879 22.7254 6.53405 22.7028C6.4793 22.6801 6.42955 22.6469 6.38765 22.605C6.34575 22.5631 6.31253 22.5134 6.28987 22.4586C6.26721 22.4039 6.25556 22.3452 6.2556 22.2859V18.6315C6.25553 18.5275 6.29148 18.4266 6.35733 18.3461C6.42318 18.2655 6.51488 18.2102 6.61686 18.1896C7.02438 18.1063 7.39061 17.8848 7.65362 17.5626C7.91664 17.2403 8.06029 16.8372 8.06029 16.4212C8.06029 16.0053 7.91664 15.6021 7.65362 15.2799C7.39061 14.9576 7.02438 14.7362 6.61686 14.6528ZM7.15786 18.9734V21.8348H10.7669V21.3837C10.7669 21.264 10.8144 21.1493 10.899 21.0647C10.9836 20.9801 11.0984 20.9325 11.218 20.9325C11.3377 20.9325 11.4524 20.9801 11.537 21.0647C11.6216 21.1493 11.6691 21.264 11.6691 21.3837V21.8348H25.203V18.9734C24.6752 18.7868 24.2183 18.4411 23.8951 17.9841C23.572 17.527 23.3984 16.981 23.3984 16.4213C23.3984 15.8615 23.572 15.3155 23.8951 14.8584C24.2183 14.4014 24.6752 14.0557 25.203 13.8691V11.0077H11.6691V11.4589C11.6691 11.5785 11.6216 11.6932 11.537 11.7778C11.4524 11.8625 11.3377 11.91 11.218 11.91C11.0984 11.91 10.9836 11.8625 10.899 11.7778C10.8144 11.6932 10.7669 11.5785 10.7669 11.4589V11.0077H7.15786V13.8691C7.6856 14.0557 8.14251 14.4014 8.46568 14.8584C8.78885 15.3155 8.96238 15.8615 8.96238 16.4213C8.96238 16.981 8.78885 17.527 8.46568 17.9841C8.14251 18.4411 7.6856 18.7868 7.15786 18.9734Z" fill="black"/>
</svg>