<svg xmlns="http://www.w3.org/2000/svg" width="13" height="15" viewBox="0 0 13 15" fill="none">
  <path d="M12.9724 4.12828C12.9552 4.08692 12.93 4.04934 12.8983 4.01766L9.83162 0.951292C9.76715 0.887072 9.67995 0.850882 9.58896 0.850586H3.54256C3.45162 0.850586 3.3644 0.886711 3.3001 0.951015C3.23579 1.01532 3.19967 1.10253 3.19967 1.19347V2.96987H1.12023C1.02929 2.96987 0.942077 3.00599 0.877773 3.0703C0.813469 3.1346 0.777344 3.22182 0.777344 3.31275V13.8616C0.777344 13.9525 0.813469 14.0397 0.877773 14.104C0.942077 14.1683 1.02929 14.2045 1.12023 14.2045H10.2339C10.3248 14.2045 10.412 14.1683 10.4763 14.104C10.5406 14.0397 10.5767 13.9525 10.5767 13.8616V12.0852H12.6562C12.7471 12.0852 12.8343 12.0491 12.8986 11.9847C12.9629 11.9204 12.9991 11.8332 12.9991 11.7423V4.26049C12.999 4.21509 12.99 4.17015 12.9724 4.12828ZM9.93184 2.02117L11.8284 3.91733H9.93184V2.02117ZM9.89097 13.5187H1.46312V3.65564H3.19967V11.7423C3.19967 11.8332 3.23579 11.9204 3.3001 11.9847C3.3644 12.0491 3.45162 12.0852 3.54256 12.0852H9.89097V13.5187ZM3.88544 11.3994V1.53636H9.24607V4.26039C9.24607 4.35133 9.2822 4.43855 9.3465 4.50285C9.4108 4.56715 9.49802 4.60328 9.58896 4.60328H12.3133V11.3993L3.88544 11.3994Z" fill="#021555"/>
</svg>