<svg width="50" height="51" viewBox="0 0 50 51" fill="none" xmlns="http://www.w3.org/2000/svg">
<path fill-rule="evenodd" clip-rule="evenodd" d="M34.7629 6.98546C32.3465 6.42031 29.6629 6.1419 26.7339 6.1419C12.3781 6.1419 4.303 14.217 4.303 28.5728C4.303 32.4187 4.88257 35.8139 6.00721 38.7238L3.99512 38.7195C6.68568 43.4213 11.8332 47.4713 16.1171 49.1131C19.1285 50.36 22.6809 51.0036 26.7339 51.0036C41.0896 51.0036 49.5505 41.5415 49.5505 27.1857C49.5505 23.7292 49.06 20.7171 48.1148 18.1359C45.5475 11.0519 39.9688 7.40776 34.7831 5.0625L34.7629 6.98546Z" fill="url(#paint0_linear_1821_834)"/>
<path d="M22.8801 47.4477C37.2358 47.4477 45.311 39.3726 45.311 25.0168C45.311 10.6611 37.2358 2.58594 22.8801 2.58594C8.52433 2.58594 0.449219 10.6611 0.449219 25.0168C0.449219 39.3726 8.52433 47.4477 22.8801 47.4477Z" fill="url(#paint1_linear_1821_834)"/>
<path d="M27.6252 37.1416C27.4445 37.0746 27.2252 36.927 27.0876 36.7437C26.7523 36.3548 26.417 35.9658 26.1419 35.5992C23.1626 32.1792 21.2108 29.8679 17.2645 29.7913C16.5759 29.8002 15.9825 29.1832 15.9573 28.5127C15.9321 27.8422 16.5523 27.2791 17.2409 27.2702C19.4056 27.3466 21.6134 27.3067 23.0642 26.7213C23.7789 26.4577 24.4378 25.975 24.7658 24.9067L17.3594 24.7358C16.6708 24.7446 16.0775 24.1276 16.0523 23.4571C16.0271 22.7866 16.6473 22.2235 17.3359 22.2147L24.8025 22.408C24.2792 20.4947 22.3087 19.8955 17.2692 19.8098C16.5806 19.8186 15.9873 19.2017 15.9621 18.5311C15.9369 17.8606 16.5571 17.2975 17.2457 17.2887L30.2983 17.5723C30.9869 17.5634 31.5803 18.1804 31.6055 18.8509C31.6307 19.5214 31.0105 20.0845 30.3219 20.0934L26.3755 20.0168C26.8871 20.6695 27.2134 21.4518 27.3933 22.4441L30.2465 22.5116C30.9351 22.5028 31.5284 23.1197 31.5537 23.7903C31.5789 24.4608 30.9586 25.0239 30.27 25.0327L27.3134 25.0591C27.0061 26.9946 25.8816 28.3622 24.0218 29.1263C23.7763 29.2336 23.5525 29.2827 23.2469 29.3676C24.9801 30.6061 26.4203 32.2646 27.9981 34.1065C28.3334 34.4955 28.6085 34.8621 28.9654 35.1929C29.4599 35.707 29.3601 36.5295 28.8648 36.9407C28.5332 37.2803 28.0468 37.2981 27.6252 37.1416Z" fill="#E1750F"/>
<path d="M26.925 35.8916C26.7443 35.8246 26.525 35.677 26.3874 35.4937C26.0521 35.1048 25.7168 34.7158 25.4417 34.3492C22.4624 30.9292 20.5106 28.6179 16.5643 28.5413C15.8757 28.5502 15.2823 27.9332 15.2571 27.2627C15.2319 26.5922 15.8521 26.0291 16.5407 26.0202C18.727 26.0385 20.9132 26.0567 22.364 25.4713C23.0787 25.2077 23.7376 24.725 24.0656 23.6567L16.6592 23.4858C15.9706 23.4946 15.3773 22.8776 15.3521 22.2071C15.3269 21.5366 15.9471 20.9735 16.6357 20.9647L24.1023 21.158C23.579 19.2447 21.6085 18.6455 16.569 18.5598C15.8804 18.5686 15.2871 17.9517 15.2619 17.2811C15.2367 16.6106 15.8569 16.0475 16.5455 16.0387C16.5455 16.0387 16.5455 16.0387 16.6057 16.061L29.6584 16.3446C30.347 16.3358 30.9403 16.9527 30.9655 17.6232C30.9907 18.2938 30.3705 18.8569 29.6819 18.8657L25.7355 18.7891C26.2471 19.4418 26.5735 20.2241 26.7533 21.2165L29.6065 21.284C30.2951 21.2752 30.8885 21.8921 30.9137 22.5626C30.9389 23.2331 30.3187 23.7963 29.6301 23.8051L26.7768 23.7376C26.4695 25.6731 25.345 27.0407 23.4852 27.8048C23.2398 27.9121 23.0159 27.9612 22.7103 28.0461C24.4435 29.2846 25.8837 30.9432 27.4615 32.785C27.7968 33.174 28.0719 33.5406 28.4288 33.8714C28.9233 34.3855 28.8235 35.208 28.3282 35.6192C27.833 36.0303 27.3466 36.0481 26.925 35.8916Z" fill="white"/>
<path d="M38.1981 0.393586C38.4685 -0.131195 39.2189 -0.131196 39.4894 0.393585L41.1008 3.51991C41.17 3.6542 41.2793 3.76356 41.4136 3.83278L44.5399 5.44416C45.0647 5.71464 45.0647 6.46498 44.5399 6.73547L41.4136 8.34685C41.2793 8.41606 41.17 8.52543 41.1008 8.65972L39.4894 11.786C39.2189 12.3108 38.4685 12.3108 38.1981 11.786L36.5867 8.65972C36.5175 8.52543 36.4081 8.41606 36.2738 8.34685L33.1475 6.73547C32.6227 6.46498 32.6227 5.71464 33.1475 5.44416L36.2738 3.83278C36.4081 3.76356 36.5175 3.6542 36.5867 3.51991L38.1981 0.393586Z" fill="#FDE955"/>
<defs>
<linearGradient id="paint0_linear_1821_834" x1="10.3249" y1="3.24226" x2="45.8749" y2="44.8302" gradientUnits="userSpaceOnUse">
<stop stop-color="#F19E28"/>
<stop offset="1" stop-color="#BE5F00"/>
</linearGradient>
<linearGradient id="paint1_linear_1821_834" x1="1.26283" y1="9.19989" x2="38.7487" y2="37.3143" gradientUnits="userSpaceOnUse">
<stop stop-color="#FEF362"/>
<stop offset="1" stop-color="#FAB513"/>
</linearGradient>
</defs>
</svg>
