<svg width="19" height="21" viewBox="0 0 19 21" fill="none" xmlns="http://www.w3.org/2000/svg">
<path fill-rule="evenodd" clip-rule="evenodd" d="M13.2773 3.33407C12.3424 3.11549 11.3042 3.00781 10.1711 3.00781C4.61629 3.00781 1.4917 6.13241 1.4917 11.6872C1.4917 13.1762 1.7162 14.4905 2.15182 15.6169L1.37207 15.6152C2.4262 17.4573 4.45502 19.0409 6.1247 19.6604C7.27667 20.1263 8.63042 20.3667 10.1711 20.3667C15.726 20.3667 18.9998 16.7054 18.9998 11.1505C18.9998 9.76255 18.7954 8.55978 18.4021 7.53636C17.391 4.86878 15.2641 3.48486 13.2851 2.58984L13.2773 3.33407Z" fill="url(#paint0_linear_1821_769)"/>
<path d="M8.67943 18.9917C14.2343 18.9917 17.3589 15.8671 17.3589 10.3122C17.3589 4.75741 14.2343 1.63281 8.67943 1.63281C3.12459 1.63281 0 4.75741 0 10.3122C0 15.8671 3.12459 18.9917 8.67943 18.9917Z" fill="url(#paint1_linear_1821_769)"/>
<path d="M10.5161 15.0051C10.4462 14.9791 10.3613 14.922 10.3081 14.8511C10.1783 14.7006 10.0486 14.5501 9.94213 14.4083C8.78931 13.0849 8.0341 12.1906 6.50709 12.1609C6.24065 12.1644 6.01106 11.9256 6.0013 11.6662C5.99155 11.4067 6.23154 11.1888 6.49799 11.1854C7.33558 11.2149 8.18987 11.1995 8.75126 10.973C9.02779 10.871 9.28274 10.6842 9.40968 10.2709L6.54384 10.2047C6.2774 10.2081 6.04781 9.96941 6.03805 9.70997C6.0283 9.45052 6.26829 9.23262 6.53473 9.2292L9.42388 9.30401C9.22139 8.5637 8.45892 8.33181 6.50894 8.29865C6.24249 8.30207 6.0129 8.06335 6.00315 7.8039C5.99339 7.54445 6.23339 7.32656 6.49983 7.32314L11.5504 7.43287C11.8169 7.42945 12.0465 7.66817 12.0562 7.92762C12.066 8.18707 11.826 8.40496 11.5595 8.40838L10.0325 8.37875C10.2305 8.63131 10.3568 8.93401 10.4263 9.318L11.5304 9.34411C11.7968 9.34069 12.0264 9.57942 12.0362 9.83887C12.0459 10.0983 11.8059 10.3162 11.5395 10.3196L10.3955 10.3298C10.2765 11.0788 9.84143 11.608 9.12177 11.9036C9.02681 11.9451 8.9402 11.9641 8.82194 11.997C9.4926 12.4762 10.0499 13.118 10.6604 13.8307C10.7901 13.9812 10.8966 14.123 11.0347 14.251C11.226 14.45 11.1874 14.7682 10.9958 14.9273C10.8674 15.0587 10.6792 15.0656 10.5161 15.0051Z" fill="#E1750F"/>
<path d="M10.2446 14.5207C10.1747 14.4947 10.0898 14.4376 10.0366 14.3667C9.90684 14.2162 9.77709 14.0657 9.67064 13.9239C8.51783 12.6005 7.76261 11.7062 6.23561 11.6766C5.96916 11.68 5.73957 11.4413 5.72982 11.1818C5.72006 10.9224 5.96006 10.7045 6.2265 10.701C7.07244 10.7081 7.91838 10.7151 8.47978 10.4886C8.7563 10.3866 9.01126 10.1999 9.13819 9.7865L6.27235 9.72034C6.00591 9.72376 5.77632 9.48504 5.76657 9.22559C5.75681 8.96614 5.99681 8.74825 6.26325 8.74483L9.15239 8.81964C8.94991 8.07932 8.18743 7.84744 6.23745 7.81428C5.97101 7.8177 5.74142 7.57897 5.73167 7.31953C5.72191 7.06008 5.9619 6.84218 6.22835 6.83876C6.22835 6.83876 6.22835 6.83876 6.25165 6.84741L11.3023 6.95714C11.5687 6.95372 11.7983 7.19245 11.808 7.4519C11.8178 7.71134 11.5778 7.92924 11.3114 7.93266L9.78436 7.90303C9.98229 8.15558 10.1086 8.45829 10.1782 8.84228L11.2822 8.86839C11.5486 8.86497 11.7782 9.1037 11.788 9.36314C11.7977 9.62259 11.5578 9.84049 11.2913 9.84391L10.1873 9.8178C10.0684 10.5667 9.63325 11.0959 8.91359 11.3916C8.81863 11.4331 8.73202 11.4521 8.61376 11.4849C9.28442 11.9641 9.8417 12.6059 10.4522 13.3186C10.5819 13.4691 10.6884 13.611 10.8265 13.739C11.0178 13.9379 10.9792 14.2562 10.7876 14.4153C10.5959 14.5744 10.4078 14.5813 10.2446 14.5207Z" fill="white"/>
<path d="M14.6066 0.785107C14.7112 0.582048 15.0016 0.582047 15.1062 0.785107L15.7297 1.99481C15.7565 2.04677 15.7988 2.08909 15.8508 2.11587L17.0605 2.73938C17.2636 2.84404 17.2636 3.13438 17.0605 3.23904L15.8508 3.86255C15.7988 3.88934 15.7565 3.93165 15.7297 3.98361L15.1062 5.19332C15.0016 5.39638 14.7112 5.39638 14.6066 5.19332L13.9831 3.98361C13.9563 3.93165 13.914 3.88934 13.862 3.86255L12.6523 3.23904C12.4492 3.13438 12.4492 2.84404 12.6523 2.73938L13.862 2.11587C13.914 2.08909 13.9563 2.04677 13.9831 1.99481L14.6066 0.785107Z" fill="#FDE955"/>
<defs>
<linearGradient id="paint0_linear_1821_769" x1="3.82143" y1="1.88551" x2="17.5772" y2="17.9782" gradientUnits="userSpaceOnUse">
<stop stop-color="#F19E28"/>
<stop offset="1" stop-color="#BE5F00"/>
</linearGradient>
<linearGradient id="paint1_linear_1821_769" x1="0.314819" y1="4.19202" x2="14.8196" y2="15.0706" gradientUnits="userSpaceOnUse">
<stop stop-color="#FEF362"/>
<stop offset="1" stop-color="#FAB513"/>
</linearGradient>
</defs>
</svg>
