<svg width="23" height="24" viewBox="0 0 23 24" fill="none" xmlns="http://www.w3.org/2000/svg">
<path d="M1.39904 15.4579C1.16894 12.7217 1.0877 9.80457 1.16187 7.11948C1.24942 3.95025 3.5858 1.41412 6.76875 1.16829C7.45156 1.11555 8.14429 1.0793 8.81188 1.06883C10.2819 1.04576 11.8778 1.1438 13.2221 1.27549" stroke="#253851" stroke-width="2" stroke-linecap="round" stroke-linejoin="round"/>
<path d="M5.60594 6.59827C5.10859 10.8297 5.10025 16.5056 5.5809 21.2629C5.68159 22.2595 6.53183 22.9997 7.53355 22.9997H18.9031C19.9049 22.9997 20.7551 22.2595 20.8558 21.2629C21.3364 16.5056 21.328 10.8297 20.8307 6.59829C20.7367 5.79803 20.1424 5.16158 19.3459 5.0395C17.8027 4.80296 15.3796 4.54297 13.2183 4.54297C11.057 4.54297 8.63394 4.80296 7.09073 5.0395C6.29427 5.16158 5.7 5.79802 5.60594 6.59827Z" stroke="#253851" stroke-width="2" stroke-linecap="round" stroke-linejoin="round"/>
</svg>
