<svg xmlns="http://www.w3.org/2000/svg" width="33" height="19" viewBox="0 0 33 19" fill="none">
  <path d="M31.2646 18.109H0.8987C0.598542 18.109 0.398438 17.9089 0.398438 17.6087V13.0563C0.398438 12.8062 0.598542 12.6061 0.798647 12.5561C2.24941 12.3059 3.34999 11.0553 3.34999 9.55449C3.34999 8.0537 2.24941 6.75302 0.798647 6.50289C0.548516 6.45286 0.398438 6.25276 0.398438 6.00262V1.50026C0.398438 1.2001 0.598542 1 0.8987 1H31.3146C31.6148 1 31.8149 1.2001 31.8149 1.50026V6.05265C31.8149 6.25275 31.7149 6.45286 31.5148 6.50289C30.3141 7.00315 29.5137 8.15375 29.5137 9.45443C29.4637 10.8051 30.3141 12.0558 31.5148 12.5561C31.7149 12.6561 31.8149 12.8062 31.8149 13.0063V17.5587C31.7649 17.8588 31.5648 18.109 31.2646 18.109ZM1.39896 17.1084H30.8144V13.4065C29.3636 12.6561 28.4632 11.1553 28.5132 9.50446C28.5632 7.95365 29.4637 6.50289 30.8144 5.80252V2.10058H1.39896V5.65244C3.14988 6.1527 4.40054 7.80357 4.35051 9.60451C4.35051 11.4055 3.09985 13.0063 1.39896 13.4565V17.1084Z" fill="#27374D" stroke="#27374D" stroke-width="0.8"/>
  <path d="M19.6633 18.1097C19.3632 18.1097 19.1631 17.9096 19.1631 17.6095V1.55104C19.1631 1.25089 19.3632 1.05078 19.6633 1.05078C19.9635 1.05078 20.1636 1.25089 20.1636 1.55104V17.6095C20.1636 17.8596 19.9135 18.1097 19.6633 18.1097Z" fill="#27374D" stroke="#27374D" stroke-width="0.8"/>
  <path d="M15.9614 5.35404H6.75661C6.45645 5.35404 6.25635 5.15394 6.25635 4.85378C6.25635 4.55362 6.45645 4.35352 6.75661 4.35352H15.9614C16.2616 4.35352 16.4617 4.55362 16.4617 4.85378C16.4617 5.15394 16.2616 5.35404 15.9614 5.35404Z" fill="#27374D" stroke="#27374D" stroke-width="0.8"/>
  <path d="M15.9614 8.50345H6.75661C6.45645 8.50345 6.25635 8.30335 6.25635 8.00319C6.25635 7.70303 6.45645 7.50293 6.75661 7.50293H15.9614C16.2616 7.50293 16.4617 7.70303 16.4617 8.00319C16.4617 8.30335 16.2616 8.50345 15.9614 8.50345Z" fill="#27374D" stroke="#27374D" stroke-width="0.8"/>
  <path d="M15.9614 11.607H6.75661C6.45645 11.607 6.25635 11.4069 6.25635 11.1067C6.25635 10.8066 6.45645 10.6064 6.75661 10.6064H15.9614C16.2616 10.6064 16.4617 10.8066 16.4617 11.1067C16.4617 11.4069 16.2616 11.607 15.9614 11.607Z" fill="#27374D" stroke="#27374D" stroke-width="0.8"/>
  <path d="M15.9614 14.7613H6.75661C6.45645 14.7613 6.25635 14.5612 6.25635 14.261C6.25635 13.9608 6.45645 13.7607 6.75661 13.7607H15.9614C16.2616 13.7607 16.4617 13.9608 16.4617 14.261C16.4617 14.5612 16.2616 14.7613 15.9614 14.7613Z" fill="#27374D" stroke="#27374D" stroke-width="0.8"/>
</svg>