<svg width="14" height="15" viewBox="0 0 14 15" fill="none" xmlns="http://www.w3.org/2000/svg">
<path d="M13.4363 11.6995L11.0234 9.34139L9.22147 7.58043L13.4363 3.46138C14.0499 2.86173 14.0499 1.88969 13.4363 1.29003C12.8227 0.69038 11.8281 0.69038 11.2145 1.29003L6.99963 5.40908L2.78516 1.2904C2.17156 0.690741 1.17692 0.690742 0.563317 1.2904C-0.0502831 1.89005 -0.0502831 2.86209 0.563316 3.46174L4.77815 7.58079L3.83387 8.50361L0.563314 11.6998C-0.0502862 12.2995 -0.0502852 13.2715 0.563314 13.8712C1.17691 14.4708 2.17156 14.4708 2.78516 13.8712L7 9.75214L11.2148 13.8712C11.8284 14.4708 12.8231 14.4708 13.4367 13.8712C14.0503 13.2715 14.0499 12.2991 13.4363 11.6995Z" fill="#2C353E"/>
</svg>
