<svg width="20" height="18" viewBox="0 0 20 18" fill="none" xmlns="http://www.w3.org/2000/svg">
<path fill-rule="evenodd" clip-rule="evenodd" d="M7.19615 11.137L8.66023 12.544L12.8032 8.56261L13.3448 9.08301L8.93067 13.3249C8.78106 13.4687 8.53875 13.4687 8.38915 13.3249L6.65469 11.6581L7.19615 11.137ZM3.53707 1.75924C2.14077 1.75924 1 2.85547 1 4.19733V14.5612C1 15.903 2.14073 16.9993 3.53707 16.9993L16.4622 17C17.8584 17 18.9992 15.9038 18.9992 14.5619L19 4.19731C19 3.5264 18.7148 2.91689 18.2551 2.4751C17.3707 1.62523 16.4295 1.75926 15.2872 1.75926V1H14.5212V1.75926H10.383V1H9.61711V1.75926H5.47889V1H4.71297V1.75926L3.53707 1.75924ZM16.4622 2.49528C16.9491 2.49528 17.3917 2.68697 17.7127 2.99548C18.3127 3.57204 18.2332 4.1531 18.2332 4.88765H1.76515C1.76515 4.15385 1.68567 3.57204 2.28565 2.99548C2.94562 2.36126 3.73961 2.49528 4.71201 2.49528V3.39233H5.47793V2.49528H9.61615V3.39233H10.3821V2.49528H14.5203V3.39233H15.2862V2.49528H16.4622ZM1.76517 5.62364V14.5611C1.76517 15.4964 2.56305 16.2631 3.53625 16.2631L16.4621 16.2639C17.4353 16.2639 18.2332 15.4971 18.2332 14.5619L18.234 5.62363L1.76517 5.62364Z" fill="#0080FF" stroke="#0080FF" stroke-width="0.5"/>
</svg>
