<svg width="41" height="42" viewBox="0 0 41 42" fill="none" xmlns="http://www.w3.org/2000/svg">
<path fill-rule="evenodd" clip-rule="evenodd" d="M40.9947 21.1423C41.2237 34.2589 33.9744 41.7658 20.8577 41.9947C7.7411 42.2237 0.234215 34.9744 0.00526291 21.8577C-0.223689 8.7411 7.02563 1.23421 20.1423 1.00526C33.2589 0.776311 40.7658 8.02563 40.9947 21.1423ZM23.7163 32.695C23.8467 32.8705 24.0547 33.0094 24.226 33.0707C24.6257 33.2138 25.0867 33.1857 25.5562 32.774C26.0257 32.3623 26.1202 31.5587 25.6514 31.0687C25.4049 30.8397 25.1996 30.5912 24.9834 30.3296C24.9028 30.232 24.8206 30.1327 24.7343 30.0318C23.2385 28.2722 21.873 26.6882 20.2299 25.52C20.2903 25.5013 20.3474 25.4842 20.402 25.4679C20.6091 25.4059 20.7803 25.3547 20.9644 25.2677C22.7275 24.4817 23.7934 23.124 24.0846 21.2313L26.7894 21.2335C27.4422 21.2095 28.0301 20.647 28.0062 19.9942C27.9822 19.3414 27.4197 18.7535 26.7669 18.7775L24.0621 18.7753C23.8915 17.8123 23.5821 17.0573 23.0971 16.4327L26.8382 16.4194C27.491 16.3955 28.0789 15.833 28.055 15.1802C28.031 14.5274 27.4685 13.9395 26.8157 13.9634L14.4419 13.9779L14.3848 13.9575C13.732 13.9814 13.1441 14.5439 13.168 15.1967C13.192 15.8495 13.7545 16.4374 14.4073 16.4135C19.1847 16.3847 21.0527 16.9247 21.549 18.7773L14.4707 18.7553C13.8179 18.7792 13.23 19.3417 13.2539 19.9945C13.2779 20.6473 13.8404 21.2352 14.4932 21.2113L21.5144 21.2129C21.2035 22.2611 20.5789 22.7461 19.9014 23.0189C18.5261 23.6216 16.4535 23.6525 14.381 23.6835C13.7282 23.7074 13.1403 24.27 13.1643 24.9227C13.1882 25.5755 13.7507 26.1635 14.4035 26.1395C18.0867 26.1264 19.9372 28.2669 22.689 31.4498C22.7323 31.4999 22.7759 31.5503 22.8196 31.6009C23.0804 31.9519 23.3983 32.3234 23.7162 32.6949L23.7163 32.695Z" fill="#253851"/>
<path d="M32.3658 0.460216C32.6821 -0.153404 33.5594 -0.153406 33.8757 0.460214L35.7599 4.11579C35.8408 4.27281 35.9687 4.40069 36.1257 4.48162L39.7813 6.36579C40.3949 6.68206 40.3949 7.55942 39.7813 7.8757L36.1257 9.75987C35.9687 9.8408 35.8408 9.96868 35.7599 10.1257L33.8757 13.7813C33.5594 14.3949 32.6821 14.3949 32.3658 13.7813L30.4816 10.1257C30.4007 9.96868 30.2728 9.8408 30.1158 9.75987L26.4602 7.8757C25.8466 7.55942 25.8466 6.68206 26.4602 6.36579L30.1158 4.48162C30.2728 4.40069 30.4007 4.27281 30.4816 4.11579L32.3658 0.460216Z" fill="#5A6B83"/>
</svg>
