<svg width="187" height="158" viewBox="0 0 187 158" fill="none" xmlns="http://www.w3.org/2000/svg">
<path fill-rule="evenodd" clip-rule="evenodd" d="M131.01 150.594C132.859 150.594 134.358 152.154 134.358 154.078V154.516C134.358 156.44 132.859 158 131.01 158H123.936C122.085 158 120.586 156.44 120.586 154.516V154.078C120.586 152.154 122.085 150.594 123.936 150.594H131.01ZM92.8879 9.25781C107.456 9.25781 120.997 13.6911 132.257 21.2927L153.588 21.293C158.181 21.293 161.903 25.023 161.903 29.6255C161.903 34.226 158.181 37.957 153.588 37.957L149.665 37.9551C156.568 47.2632 161.273 58.3255 163.003 70.3593L173.858 70.3594C179.257 70.3594 183.633 74.7809 183.633 80.2349C183.633 85.6878 179.257 90.1094 173.858 90.1094H173.534C170.843 90.1094 168.397 91.1873 166.634 92.9834C164.865 94.787 163.771 96.9119 163.771 99.6614C163.771 102.552 164.983 105.053 166.915 106.775L180.663 106.773C184.163 106.773 187 110.158 187 114.334C187 118.51 184.163 121.895 180.663 121.895L150.778 121.895C149.507 123.708 148.154 125.459 146.725 127.141L159.481 127.141C162.679 127.141 165.27 129.835 165.27 133.158C165.27 136.481 162.679 139.176 159.481 139.176L133.591 139.179C122.074 147.343 108.036 152.137 92.8879 152.137C91.4221 152.137 89.9668 152.092 88.5231 152.003C88.2547 152.091 87.9732 152.137 87.6835 152.137H30.1468C28.2033 152.137 26.6268 150.064 26.6268 147.508C26.6268 144.952 28.2033 142.879 30.1468 142.879L45.237 142.881C45.4408 142.737 45.6335 142.575 45.814 142.393C46.8064 141.386 47.4222 140.058 47.4222 138.515C47.4222 135.429 44.9631 133.004 41.9296 133.004H36.973C33.964 133.004 31.5237 130.585 31.5237 127.604C31.5237 125.169 33.1497 123.111 35.3837 122.436C35.3265 122.361 35.2705 122.283 35.2147 122.204L14.9686 122.203C6.70189 122.203 0 115.502 0 107.236C0 98.9706 6.70189 92.2695 14.9686 92.2695L22.961 92.2703C22.3524 88.5032 22.036 84.6372 22.036 80.6967C22.036 74.1254 22.9159 67.7614 24.5635 61.7178L16.4871 61.7187C10.7621 61.7187 6.12111 57.0911 6.12111 51.3803C6.12111 45.6716 10.7621 41.043 16.4871 41.043L33.9439 41.0432C38.4326 34.2733 44.0381 28.32 50.4947 23.4511L47.3044 23.4531C43.4915 23.4531 40.3993 20.3448 40.3993 16.5098C40.3993 12.6747 43.4915 9.56641 47.3044 9.56641H84.2995C84.6724 9.56641 85.0384 9.59613 85.3952 9.65335C87.8564 9.39165 90.3567 9.25781 92.8879 9.25781ZM138.452 0C140.923 0 142.928 2.07281 142.928 4.62837C142.928 7.18392 140.923 9.25781 138.452 9.25781H126.901C124.427 9.25781 122.422 7.18392 122.422 4.62837C122.422 2.07281 124.427 0 126.901 0H138.452Z" fill="#021555" fill-opacity="0.05"/>
<path d="M112.736 69.3554C112.592 69.3542 112.229 69.3567 111.723 69.3887C112.4 68.9998 112.829 68.2466 112.754 67.4183L111.926 58.317C111.829 57.2549 110.939 56.4426 109.873 56.4426H101.685C101.572 48.4601 95.0515 42 87.0419 42C79.0323 42 72.5131 48.4613 72.3987 56.4426H64.1996C63.1337 56.4426 62.2427 57.2549 62.1467 58.317L58.0201 103.705C58.0041 103.903 57.6508 108.596 60.7117 111.921C62.6218 113.999 65.3429 115.05 68.8013 115.05H105.27C106.409 115.05 107.332 114.127 107.332 112.989C107.332 111.85 106.409 110.927 105.27 110.927H68.8013C66.5564 110.927 64.8617 110.329 63.7639 109.15C61.9264 107.175 62.1282 104.068 62.1282 104.063L66.0813 60.5643H72.3876V66.7697C72.3876 67.9081 73.3106 68.8312 74.4491 68.8312C75.5875 68.8312 76.5105 67.9081 76.5105 66.7697V60.5643H97.5696V66.7697C97.5696 67.9081 98.4926 68.8312 99.631 68.8312C100.769 68.8312 101.693 67.9081 101.693 66.7697V60.5643H107.988L108.646 67.79C108.724 68.6416 109.308 69.3284 110.075 69.5708C107.088 70.0336 102.304 71.4772 99.1129 75.9645C93.5611 83.7808 96.7942 91.6587 97.9154 93.8851L98.1209 94.2974C100.41 98.8634 103.868 105.763 111.165 114.326C111.557 114.785 112.13 115.05 112.733 115.05C113.336 115.05 113.91 114.785 114.301 114.328C121.547 105.84 125.006 98.968 127.295 94.4193L127.564 93.8876C128.687 91.6575 131.92 83.7771 126.361 75.9632C121.692 69.3948 113.591 69.3468 112.736 69.3554ZM87.0419 46.1217C92.7771 46.1217 97.4477 50.7333 97.561 56.4426H76.5216C76.6349 50.7333 81.3055 46.1217 87.0419 46.1217ZM123.885 92.0316L123.617 92.5658C121.59 96.5915 118.608 102.515 112.738 109.764C106.822 102.449 103.838 96.4967 101.811 92.4513L101.603 92.0341C100.741 90.3259 98.26 84.2904 102.476 78.3545C105.861 73.5978 112.054 73.4796 112.736 73.4796C112.767 73.4796 112.786 73.4809 112.794 73.4809C112.866 73.4735 119.47 73.3849 123.006 78.3545C127.225 84.2891 124.745 90.3246 123.885 92.0316Z" fill="#021555" fill-opacity="0.2"/>
<path d="M112.736 76.1016C107.298 76.1016 102.874 80.5223 102.874 85.9572C102.874 91.4008 107.298 95.8289 112.736 95.8289C118.179 95.8289 122.609 91.3995 122.609 85.9572C122.61 80.5223 118.181 76.1016 112.736 76.1016ZM112.736 91.7072C109.572 91.7072 106.998 89.1276 106.998 85.9572C106.998 82.7967 109.572 80.2245 112.736 80.2245C115.906 80.2245 118.486 82.7967 118.486 85.9572C118.486 89.1276 115.907 91.7072 112.736 91.7072Z" fill="#021555" fill-opacity="0.2"/>
</svg>
