<svg width="38" height="38" viewBox="0 0 38 38" fill="none" xmlns="http://www.w3.org/2000/svg">
<path fill-rule="evenodd" clip-rule="evenodd" d="M18.9998 36.0758C28.4307 36.0758 36.0758 28.4303 36.0758 18.9995C36.0758 9.56874 28.4307 1.9237 18.9998 1.9237C9.56886 1.9237 1.92373 9.56874 1.92373 18.9995C1.92373 28.4303 9.56886 36.0758 18.9998 36.0758ZM18.9998 24.8868C20.6917 24.8868 21.5767 26.9551 20.3598 28.171L20.3579 28.1691C18.5636 29.9606 15.8496 27.2466 17.6411 25.4523L17.6392 25.4504C17.9876 25.102 18.4683 24.8868 18.9998 24.8868ZM18.1583 9.26534C19.2761 9.26534 20.804 8.99656 20.804 10.2272V22.4933C20.804 23.7244 19.2761 23.4551 18.1583 23.4551C17.6274 23.4551 17.1964 23.0242 17.1964 22.4933V10.2272C17.196 9.69578 17.6269 9.26534 18.1583 9.26534ZM32.435 32.4351C25.0151 39.855 12.9849 39.855 5.56496 32.4351C-1.85499 25.0152 -1.85499 12.9848 5.56496 5.5649C12.9849 -1.85496 25.0151 -1.85496 32.435 5.5649C39.855 12.9852 39.855 25.0152 32.435 32.4351Z" fill="white"/>
</svg>
