<svg width="33" height="28" viewBox="0 0 33 28" fill="none" xmlns="http://www.w3.org/2000/svg">
<path d="M33 9.28089V6.23935C33 3.35053 30.6291 1.41871 27.72 1.01148C18.9217 -0.225498 13.9539 -0.444387 5.28 1.01148C2.20338 1.52816 0 3.35053 0 6.23935V9.28089C1.87592 10.0826 3.18577 11.9305 3.18577 14.0837C3.18577 16.237 1.87592 18.0822 0 18.884V21.9255C0 24.8143 2.18308 26.7538 5.28 27.1534C14.058 28.286 18.9572 28.2784 27.72 27.1534C30.9058 26.7462 33 24.8143 33 21.9255V18.884C31.1241 18.0822 29.8142 16.2344 29.8142 14.0812C29.8142 11.9279 31.1241 10.0826 33 9.28089ZM11.4764 5.97719C12.8497 5.97719 13.9615 7.09454 13.9615 8.46896C13.9615 9.84338 12.8472 10.9633 11.4764 10.9633C10.1056 10.9633 8.98869 9.84847 8.98869 8.47151C8.98869 7.09454 10.1031 5.97719 11.4764 5.97719ZM11.484 20.3806C11.2479 20.5766 10.9611 20.6707 10.6793 20.6707C10.3112 20.6707 9.94823 20.5104 9.69692 20.205C9.25269 19.6654 9.32885 18.8611 9.86954 18.4157C15.0378 14.1524 17.5027 11.681 21.3358 6.92402C21.7775 6.37679 22.5745 6.29026 23.1203 6.73312C23.6661 7.17599 23.7498 7.97519 23.3107 8.52241C19.3989 13.3812 16.7437 16.0435 11.484 20.3806ZM21.6302 21.1976C20.2569 21.1976 19.1451 20.0802 19.1451 18.7058C19.1451 17.3314 20.2569 16.2115 21.6302 16.2115C23.0035 16.2115 24.1154 17.3289 24.1154 18.7033C24.1154 20.0777 23.001 21.1976 21.6302 21.1976Z" fill="#27374D"/>
</svg>
