<svg width="28" height="28" viewBox="0 0 28 28" fill="none" xmlns="http://www.w3.org/2000/svg">
<path d="M24.5014 11.4778C26.1324 12.6766 26.1324 15.1134 24.5014 16.3122L24.2508 16.4964C23.3514 17.1575 22.8934 18.2633 23.062 19.3668L23.1119 19.6932C23.4176 21.6944 21.6944 23.4176 19.6932 23.1119L19.3668 23.062C18.2633 22.8934 17.1575 23.3514 16.4964 24.2508L16.3122 24.5014C15.1134 26.1324 12.6766 26.1324 11.4778 24.5014L11.2936 24.2508C10.6325 23.3514 9.52668 22.8934 8.42325 23.062L8.09676 23.1119C6.09565 23.4176 4.37237 21.6943 4.6781 19.6932L4.72798 19.3668C4.89656 18.2633 4.43857 17.1575 3.53916 16.4964L3.28858 16.3122C1.65761 15.1134 1.65761 12.6766 3.28858 11.4778L3.53916 11.2936C4.43857 10.6325 4.89656 9.52668 4.72798 8.42325L4.6781 8.09676C4.37237 6.09565 6.09565 4.37237 8.09676 4.6781L8.42325 4.72798C9.52668 4.89656 10.6325 4.43857 11.2936 3.53916L11.4778 3.28858C12.6766 1.65761 15.1134 1.65761 16.3122 3.28857L16.4964 3.53916C17.1575 4.43857 18.2633 4.89656 19.3668 4.72798L19.6932 4.6781C21.6944 4.37237 23.4176 6.09565 23.1119 8.09676L23.062 8.42325C22.8934 9.52668 23.3514 10.6325 24.2508 11.2936L24.5014 11.4778Z" fill="#17AF69" stroke="#17AF69" stroke-width="2.475" stroke-linecap="round" stroke-linejoin="round"/>
<path d="M16.4299 10.3672L11 17.6338" stroke="white" stroke-width="3" stroke-linecap="round"/>
<circle cx="10.8446" cy="11.2665" r="1.26649" fill="white" stroke="white"/>
<circle cx="16.9674" cy="16.5474" r="1.24079" fill="white" stroke="white"/>
</svg>
