<svg width="134" height="20" viewBox="0 0 134 20" fill="none" xmlns="http://www.w3.org/2000/svg">
<path d="M133.956 13.8892C133.976 13.934 133.972 13.9815 133.913 14.0263C132.691 14.9835 131.47 15.9441 130.248 16.8979C131.22 17.7274 132.197 18.5535 133.17 19.3796C133.237 19.4358 133.232 19.4986 133.194 19.5461C133.306 19.6211 133.373 19.7314 133.365 19.8538C133.361 19.9281 133.283 20.0057 133.174 19.9997L132.805 19.9789C132.746 19.9756 132.711 19.9582 132.68 19.9314H1.31983C1.28928 19.9582 1.2465 19.9756 1.19587 19.9789L0.825733 19.9997C0.720977 20.0057 0.638918 19.9314 0.635426 19.8538C0.627569 19.7314 0.68955 19.6211 0.806527 19.5461C0.767244 19.496 0.763752 19.4331 0.825733 19.3796C1.80258 18.5535 2.77943 17.7274 3.75279 16.8979C2.52715 15.9441 1.30848 14.9835 0.0863289 14.0263C0.02784 13.9815 0.0199833 13.934 0.0400616 13.8892C-0.0419975 13.8082 0.000777856 13.6477 0.179736 13.6417C0.184101 13.6417 0.184101 13.6417 0.187593 13.6383C0.191958 13.5995 0.214655 13.5607 0.273144 13.534C1.25785 13.1106 2.24692 12.6871 3.23076 12.2577C3.19584 12.1774 3.25084 12.0697 3.39488 12.0637L0.448611 9.3921C0.33949 9.29043 0.440754 9.15932 0.565588 9.14126C0.56908 9.09644 0.592651 9.05764 0.651139 9.02821C1.65069 8.54794 2.65111 8.07101 3.65502 7.59073C2.65897 6.73185 1.6664 5.86963 0.66598 5.01075C0.611856 4.96325 0.608364 4.91576 0.627569 4.8676C0.510591 4.81676 0.456467 4.67964 0.611856 4.61743C1.62013 4.22077 2.62754 3.82076 3.63582 3.4241C2.93133 2.31772 2.07931 1.28894 1.07104 0.335075H0.969773C0.969773 0.298954 0.974137 0.263502 0.974137 0.227381C0.939219 0.173868 0.946202 0.120355 0.981994 0.0782139V0.0427618H1.01255C1.07889 -0.00807531 1.18016 -0.0201156 1.25436 0.0427618H132.742C132.816 -0.0201156 132.922 -0.00807531 132.983 0.0427618H133.015V0.0782139C133.05 0.120355 133.058 0.173868 133.022 0.227381C133.022 0.263502 133.026 0.298954 133.026 0.335075H132.922C131.909 1.28894 131.06 2.31772 130.356 3.4241C131.364 3.82076 132.372 4.22077 133.381 4.61743C133.532 4.67696 133.482 4.81676 133.365 4.8676C133.384 4.91576 133.376 4.96325 133.326 5.01075L130.337 7.59073C131.337 8.07101 132.341 8.54794 133.341 9.02821C133.403 9.05764 133.423 9.09644 133.427 9.14126C133.552 9.15932 133.653 9.29043 133.544 9.3921L130.598 12.0637C130.742 12.0697 130.796 12.1774 130.757 12.2577C131.742 12.6845 132.73 13.1079 133.715 13.534C133.777 13.5607 133.801 13.5995 133.805 13.6383C133.805 13.6417 133.808 13.6417 133.808 13.6417C133.999 13.6477 134.046 13.8082 133.956 13.8892Z" fill="white"/>
</svg>
