<svg width="10" height="16" viewBox="0 0 10 16" fill="none" xmlns="http://www.w3.org/2000/svg">
<path d="M1.09676 16C0.863256 16.0004 0.63592 15.9302 0.448902 15.7999C0.261883 15.6696 0.125283 15.4862 0.0596227 15.2774C-0.00603753 15.0685 0.00278846 14.8454 0.0847747 14.6417C0.166761 14.4379 0.31748 14.2644 0.514288 14.1473C3.09622 12.6779 5.4404 10.8731 7.47617 8.78742C7.59408 8.68909 7.68841 8.56867 7.75298 8.43404C7.81756 8.29941 7.85094 8.1536 7.85094 8.00613C7.85094 7.85866 7.81756 7.71285 7.75298 7.57822C7.68841 7.4436 7.59408 7.32318 7.47617 7.22484C5.43974 5.13899 3.09569 3.33336 0.514286 1.86209C0.392029 1.79213 0.285973 1.70014 0.202326 1.59151C0.118679 1.48288 0.0591225 1.35979 0.0271423 1.22945C-0.00483795 1.0991 -0.0085992 0.964118 0.0160786 0.832401C0.0407565 0.700683 0.0933776 0.574877 0.170862 0.462347C0.248346 0.349817 0.349136 0.252823 0.467333 0.177044C0.58553 0.101265 0.718758 0.0482222 0.859218 0.0210217C0.999679 -0.00617884 1.14455 -0.00699103 1.28535 0.0186327C1.42615 0.0442564 1.56006 0.0958011 1.67922 0.17025C4.40668 1.73238 6.88508 3.64397 9.04175 5.84897C9.34553 6.13175 9.58652 6.46756 9.75094 6.83722C9.91537 7.20687 10 7.6031 10 8.00326C10 8.40342 9.91537 8.79966 9.75094 9.16931C9.58652 9.53896 9.34553 9.87478 9.04175 10.1576C6.8855 12.3646 4.40708 14.2781 1.67922 15.842C1.505 15.9449 1.30303 15.9997 1.09676 16Z" fill="#3E69E9"/>
</svg>
