<svg width="34" height="36" viewBox="0 0 34 36" fill="none" xmlns="http://www.w3.org/2000/svg">
<path fill-rule="evenodd" clip-rule="evenodd" d="M3.0183 21.5581C3.47532 23.0648 1.21484 23.7682 0.757773 22.2615C-2.58048 11.263 5.52129 0 17.0046 0C26.3909 0 34 7.70231 34 17.2036C34 29.8698 20.9467 38.113 9.75039 32.7614L10.2105 34.501C10.6135 36.0249 8.32524 36.6454 7.92222 35.12L6.71784 30.5734C6.54954 29.9341 6.92474 29.2761 7.55627 29.1058L12.0478 27.8866C13.5533 27.4787 14.1663 29.795 12.6593 30.203L10.9191 30.675C20.4616 35.1043 31.6267 28.082 31.6267 17.2038C31.6267 9.0277 25.08 2.40092 17.0029 2.40092C7.08849 2.40092 0.158845 12.1397 3.0183 21.5581ZM10.9733 18.4041H17.0045C17.6591 18.4041 18.1903 17.8664 18.1903 17.2037V6.97705C18.1903 5.3969 15.8186 5.3969 15.8186 6.97705V16.0034H10.9733C9.41072 16.0034 9.41072 18.4041 10.9733 18.4041Z" fill="white"/>
</svg>
