<svg xmlns="http://www.w3.org/2000/svg" width="28" height="28" viewBox="0 0 28 28" fill="none">
  <circle cx="14" cy="14" r="14" fill="white"/>
  <circle cx="14" cy="14" r="13.5" stroke="#27374D" stroke-opacity="0.1"/>
  <path d="M14.0001 7.33398C13.4741 7.33398 13.0478 7.76039 13.0478 8.28636V13.0482H8.28587C7.7599 13.0482 7.3335 13.4746 7.3335 14.0006C7.3335 14.5266 7.7599 14.953 8.28587 14.953H13.0478V19.7149C13.0478 20.2409 13.4741 20.6673 14.0001 20.6673C14.5261 20.6673 14.9525 20.2409 14.9525 19.7149V14.953H19.7144C20.2404 14.953 20.6668 14.5266 20.6668 14.0006C20.6668 13.4746 20.2404 13.0482 19.7144 13.0482H14.9525V8.28636C14.9525 7.76039 14.5261 7.33398 14.0001 7.33398Z" fill="#1D1D1B"/>
</svg>