<svg xmlns="http://www.w3.org/2000/svg" width="32" height="36" viewBox="0 0 32 36" fill="none">
  <path d="M6.94393 0C5.96191 0 5.16318 0.792097 5.16318 1.76565V2.55254H2.62606C1.85317 2.55254 1.12243 2.88747 0.621489 3.47155C0.125657 4.0496 -0.0886503 4.80876 0.0336768 5.55443C0.70027 9.61851 3.2798 13.209 6.94074 15.1784C7.27525 15.9758 7.65406 16.7311 8.07592 17.4348C9.42344 19.6831 11.0986 21.2368 12.9425 21.9883C13.1294 23.8617 11.8722 25.6363 9.97883 26.0593C9.97479 26.0602 9.97186 26.0617 9.96789 26.0626C9.59836 26.1501 9.32329 26.4789 9.32329 26.8721V30.6945H7.76415C6.37409 30.6945 5.24324 31.8158 5.24324 33.1941V35.1668C5.24324 35.627 5.61941 36 6.08354 36H25.0877C25.5518 36 25.928 35.627 25.928 35.1668V33.1941C25.928 31.8158 24.7972 30.6945 23.4071 30.6945H21.8478V26.8721C21.8478 26.4782 21.5718 26.1489 21.2013 26.0621C21.1978 26.0612 21.1944 26.06 21.1909 26.0594C19.2832 25.6336 18.0236 23.8411 18.2301 21.9536C20.0418 21.19 21.6878 19.6502 23.0154 17.4351C23.4373 16.7313 23.816 15.9759 24.1506 15.1784C27.8113 13.2089 30.3906 9.6185 31.0572 5.55457C31.1796 4.8089 30.9652 4.04973 30.4693 3.47169C29.9683 2.88753 29.2378 2.55267 28.4649 2.55267H25.928V1.76591C25.928 0.792291 25.129 0.000129475 24.1471 0.000129475L6.94393 0ZM6.94379 1.66636H24.147C24.2023 1.66636 24.2473 1.71087 24.2473 1.76565V5.75178C24.2473 9.85656 23.2966 13.7034 21.5705 16.5834C19.9259 19.3277 17.7862 20.8391 15.5459 20.8391C13.3052 20.8391 11.1654 19.3277 9.52052 16.5835C7.79433 13.7034 6.84379 9.85663 6.84379 5.75191V1.76565C6.84379 1.7108 6.88862 1.66636 6.94379 1.66636ZM2.62592 4.21877H5.16304V5.75178C5.16304 8.15549 5.4725 10.4838 6.05889 12.613C3.75446 10.8075 2.16781 8.18458 1.69254 5.28691C1.64886 5.02064 1.72312 4.75937 1.90168 4.5511C2.08287 4.33988 2.34673 4.21877 2.62592 4.21877ZM25.928 4.2189H28.4649C28.7441 4.2189 29.008 4.33995 29.1891 4.5511C29.3677 4.7593 29.442 5.02064 29.3984 5.28691C28.9231 8.18436 27.3367 10.8072 25.0323 12.6129C25.6186 10.4836 25.928 8.15542 25.928 5.75178V4.2189ZM15.5455 4.87905C15.2256 4.87905 14.9334 5.05915 14.7919 5.34349L13.6579 7.62179L11.1222 7.98709C10.8056 8.03265 10.5426 8.25248 10.4438 8.55412C10.345 8.85583 10.4275 9.1869 10.6565 9.40831L12.4914 11.1817L12.0582 13.6857C12.0041 13.9983 12.1336 14.3142 12.3924 14.5006C12.6511 14.687 12.9944 14.7116 13.2775 14.5641L15.5455 13.3819L17.8135 14.5641C17.9364 14.6281 18.0707 14.6597 18.2043 14.6597C18.3785 14.6597 18.552 14.6061 18.6984 14.5006C18.9572 14.3142 19.0867 13.9983 19.0326 13.6857L18.5993 11.1817L20.4342 9.40831C20.6634 9.18697 20.7459 8.85583 20.6471 8.55412C20.5482 8.25262 20.2852 8.03279 19.9687 7.98709L17.433 7.62179L16.2991 5.34349C16.1574 5.05915 15.8653 4.87905 15.5455 4.87905ZM15.5455 7.59488L16.1214 8.75202C16.2438 8.9979 16.4805 9.16837 16.7542 9.20781L18.042 9.39348L17.1101 10.2941C16.9121 10.4855 16.8216 10.7613 16.8685 11.0317L17.0884 12.3036L15.9365 11.7031C15.8141 11.6392 15.6796 11.6074 15.5453 11.6074C15.411 11.6074 15.2767 11.6394 15.1543 11.7031L14.0024 12.3036L14.2223 11.0317C14.2691 10.7614 14.1787 10.4856 13.9806 10.2941L13.0488 9.39348L14.3367 9.20781C14.6104 9.16844 14.847 8.9979 14.9694 8.75202L15.5455 7.59488ZM16.5283 22.4327C16.5474 23.7854 17.0785 25.0659 17.9714 26.0389H13.2079C13.4156 25.8122 13.6055 25.5666 13.7754 25.3035C14.3354 24.4359 14.6294 23.4503 14.6425 22.4436C14.941 22.4839 15.2422 22.5054 15.546 22.5054C15.8765 22.5054 16.204 22.4803 16.5283 22.4327ZM11.0042 27.7053H20.1672V30.6945H11.0042V27.7053ZM7.76415 32.3609H23.4071C23.8704 32.3609 24.2474 32.7348 24.2474 33.1942V34.3338H6.92385V33.1942C6.92385 32.7348 7.3008 32.3609 7.76415 32.3609Z" fill="#27374D"/>
</svg>