<svg width="42" height="44" viewBox="0 0 42 44" fill="none" xmlns="http://www.w3.org/2000/svg">
<path fill-rule="evenodd" clip-rule="evenodd" d="M22.7064 36.203C22.9229 37.8742 24.4405 39.0821 26.1408 39.0821L26.863 39.0816C27.4539 39.0816 27.9983 39.2725 28.4419 39.5928C26.0997 40.3052 23.4549 40.6732 20.5214 40.6732C7.38795 40.6732 0 33.3518 0 20.3366C0 7.32141 7.38747 0 20.5214 0C33.6554 0 41.0434 7.32141 41.0434 20.3371C41.0434 25.1342 40.0367 29.1544 38.1118 32.323C37.0291 31.9786 36.2447 30.9734 36.2447 29.7859V28.9541C36.2447 26.9821 34.4981 25.4061 32.458 25.6662C30.7716 25.8807 29.5527 27.3847 29.5527 29.0696V29.7854C29.5527 31.2572 28.3487 32.4504 26.8635 32.4504H26.0242C24.0342 32.4504 22.4439 34.1813 22.7064 36.203ZM13.5135 22.3323C13.5135 23.0291 14.0833 23.5937 14.7864 23.5937C18.4732 23.5937 20.324 25.7461 23.125 29.0035L23.1261 29.0047C23.4253 29.3529 23.7322 29.7096 24.05 30.0739C24.3019 30.3624 24.6566 30.5101 25.0132 30.5101C25.3086 30.5101 25.605 30.4093 25.8459 30.2027C26.3774 29.7475 26.4352 28.9507 25.9754 28.4235C25.6623 28.0649 25.3593 27.7125 25.0643 27.3691C23.6136 25.6818 22.2618 24.1096 20.6667 22.9576C22.5085 22.3446 24.0252 21.1395 24.4162 18.7715H27.0762C27.7794 18.7715 28.3491 18.2069 28.3491 17.5101C28.3491 16.8133 27.7794 16.2486 27.0762 16.2486H24.4166C24.2689 15.3429 23.9568 14.6087 23.5237 14.0152H27.1412C27.8444 14.0152 28.4142 13.4505 28.4142 12.7537C28.4142 12.0569 27.8444 11.4923 27.1412 11.4923H14.7573C14.0541 11.4923 13.4843 12.0569 13.4843 12.7537C13.4843 13.4505 14.0541 14.0152 14.7573 14.0152C19.4957 14.0152 21.3288 14.5069 21.8206 16.2486H14.8395C14.1363 16.2486 13.5666 16.8133 13.5666 17.5101C13.5666 18.2069 14.1363 18.7715 14.8395 18.7715H21.8116C21.2929 20.5242 19.3948 21.0708 14.7864 21.0708C14.0833 21.0708 13.5135 21.6355 13.5135 22.3323ZM36.6578 34.3454H39.7724C40.5644 34.3454 41.2069 34.9816 41.2069 35.7665C41.2069 36.5514 40.5649 37.1876 39.7729 37.1876H34.3323V42.5791C34.3323 43.3641 33.6903 44.0002 32.8983 44.0002C32.1062 44.0002 31.4643 43.3641 31.4643 42.5791V38.3955V37.1876H26.0237C25.2317 37.1876 24.5897 36.5514 24.5897 35.7665C24.5897 34.9816 25.2317 34.3454 26.0237 34.3454H31.4638V28.9538C31.4638 28.1689 32.1058 27.5327 32.8978 27.5327C33.6899 27.5327 34.3318 28.1689 34.3318 28.9538V34.3454H36.6578Z" fill="#253851"/>
</svg>
