<svg xmlns="http://www.w3.org/2000/svg" width="11" height="14" viewBox="0 0 11 14" fill="none">
  <g opacity="0.3">
    <path d="M5.29687 3.19158L5.29688 3.19159C5.33775 3.38523 5.45334 3.75047 5.56668 4.10814L5.29687 3.19158ZM5.29687 3.19158L5.29659 3.19025C5.22506 2.85154 5.09264 2.22458 4.74972 1.68196C4.40463 1.13592 3.8451 0.673748 2.9246 0.673748C2.73323 0.673748 2.57802 0.82924 2.57802 1.02052C2.57802 1.21184 2.73327 1.36709 2.9246 1.36709C3.48764 1.36709 3.85627 1.6115 4.11215 1.97738C4.37028 2.34644 4.51396 2.83986 4.61874 3.33524C4.66675 3.56286 4.78326 3.93061 4.90518 4.31546L4.90589 4.3177L4.90589 4.31771L4.91083 4.33328C4.98756 4.57529 5.0641 4.81667 5.12037 5.01516L5.12037 5.01516C5.1727 5.1997 5.36418 5.30458 5.54806 5.25418L5.54806 5.25418M5.29687 3.19158L5.54806 5.25418M5.54806 5.25418L5.54853 5.25405M5.54806 5.25418L5.54853 5.25405M5.54853 5.25405C5.73258 5.20163 5.83962 5.01014 5.78718 4.82593L5.54853 5.25405Z" fill="#021555" stroke="#021555" stroke-width="0.1"/>
    <path d="M8.08714 13.0308L8.08714 13.0308C7.90641 13.0933 7.70908 12.9983 7.64616 12.8174C7.64615 12.8173 7.64613 12.8173 7.64612 12.8173L7.69335 12.8008C7.68386 12.774 6.7455 10.0742 5.9578 7.68515L8.08714 13.0308ZM8.08714 13.0308L8.08725 13.0308M8.08714 13.0308L8.08725 13.0308M8.30074 12.5896C8.30073 12.5895 8.30072 12.5895 8.3007 12.5895L8.25348 12.6059C8.25319 12.6051 8.25202 12.6017 8.24999 12.5958C8.18639 12.4126 7.28291 9.81022 6.5211 7.4993C6.47997 7.37454 6.36391 7.29546 6.23955 7.29546C6.2087 7.29546 6.17747 7.3002 6.14662 7.31068L8.30074 12.5896ZM8.30074 12.5896C8.36352 12.7702 8.26808 12.9677 8.08725 13.0308M8.30074 12.5896L8.08725 13.0308M6.13099 7.26319C5.94917 7.32302 5.85026 7.51895 5.91032 7.70081L8.29723 12.5795C8.23352 12.396 7.33022 9.79404 6.56858 7.48365C6.5205 7.33779 6.38486 7.24546 6.23955 7.24546C6.20368 7.24546 6.16714 7.25096 6.13099 7.26319Z" fill="#021555" stroke="#021555" stroke-width="0.1"/>
    <path d="M3.38161 0.728044L3.38165 0.728051C4.52647 0.980544 5.25274 2.11698 5.00044 3.26165L3.38161 0.728044ZM3.38161 0.728044C3.23065 0.694857 3.0762 0.677844 2.92266 0.677844C1.93331 0.677844 1.06107 1.37949 0.848031 2.34686C0.725758 2.90136 0.826829 3.47029 1.13251 3.94885C1.43821 4.42743 1.91215 4.75838 2.46683 4.88065L2.46686 4.88066M3.38161 0.728044L2.46686 4.88066M2.46686 4.88066C2.61782 4.91385 2.77228 4.93086 2.92582 4.93086C3.91517 4.93086 4.7874 4.22901 5.00044 3.26165L2.46686 4.88066ZM3.23236 1.40481L3.23239 1.40481C4.004 1.57484 4.4935 2.34101 4.32348 3.11241C4.17983 3.76417 3.59191 4.23752 2.92582 4.23752C2.82247 4.23752 2.71816 4.22624 2.6162 4.20352L2.6161 4.2035C2.24209 4.12094 1.9228 3.89807 1.71681 3.57552L1.71679 3.57549C1.51061 3.25313 1.44244 2.86988 1.52499 2.49592L1.525 2.4959C1.66864 1.84414 2.25657 1.37079 2.92266 1.37079C3.02595 1.37079 3.13028 1.38225 3.23236 1.40481ZM1.67467 3.60243C1.88781 3.93617 2.21839 4.16691 2.60532 4.25232L1.67467 3.60243Z" fill="#021555" stroke="#021555" stroke-width="0.1"/>
    <path d="M4.04186 12.8199L4.04184 12.82C3.97741 12.9999 3.77902 13.0942 3.59889 13.0297M4.04186 12.8199L3.61575 12.9826M4.04186 12.8199C4.14359 12.5348 6.55913 5.75683 7.07032 3.33733C7.175 2.84196 7.31864 2.34859 7.57675 1.97958C7.83264 1.61376 8.20132 1.36939 8.76446 1.36939C8.956 1.36939 9.11104 1.21412 9.11104 1.02282C9.11104 0.831519 8.956 0.676247 8.76446 0.676247C7.84376 0.676247 7.28423 1.13846 6.93919 1.68451C6.59656 2.22674 6.46419 2.85314 6.39262 3.19181L6.39219 3.19388L6.44111 3.20422M4.04186 12.8199L3.99477 12.8031C4.09719 12.516 6.5111 5.74229 7.0214 3.327C7.23118 2.33427 7.60229 1.31939 8.76446 1.31939C8.92837 1.31939 9.06104 1.18653 9.06104 1.02282C9.06104 0.859112 8.92837 0.726247 8.76446 0.726247C6.96476 0.726247 6.58438 2.52624 6.44118 3.20387L6.44111 3.20422M3.59889 13.0297L3.61575 12.9826M3.59889 13.0297C3.59892 13.0297 3.59894 13.0297 3.59896 13.0297L3.61575 12.9826M3.59889 13.0297C3.41873 12.9655 3.32447 12.767 3.38895 12.5868L3.38896 12.5867C3.41474 12.5149 5.89108 5.56598 6.39219 3.19388L6.44111 3.20422M3.61575 12.9826C3.46153 12.9277 3.38086 12.7578 3.43603 12.6036C3.46114 12.5336 5.93911 5.58056 6.44111 3.20422" fill="#021555" stroke="#021555" stroke-width="0.1"/>
    <path d="M10.8403 2.34685L10.8403 2.34685C11.0926 3.49152 10.3663 4.62816 9.22149 4.88065L9.22146 4.88066C9.07049 4.91385 8.91604 4.93086 8.7623 4.93086C7.77314 4.93086 6.90091 4.22901 6.68768 3.26166C6.43538 2.11719 7.16164 0.980545 8.30647 0.728051L8.30652 0.728041C8.45767 0.694858 8.61212 0.677844 8.76546 0.677844H8.76548L10.8403 2.34685ZM10.8403 2.34685C10.6271 1.37993 9.7549 0.678112 8.76561 0.677844L10.8403 2.34685ZM7.36504 3.11241L7.36504 3.11244C7.5083 3.76435 8.09639 4.23752 8.7625 4.23752C8.86598 4.23752 8.97013 4.22606 9.07242 4.2035C9.84405 4.03327 10.3335 3.26729 10.1635 2.4959C10.0199 1.84435 9.43177 1.37099 8.76586 1.37079L7.36504 3.11241ZM7.36504 3.11241C7.19502 2.34101 7.68451 1.57503 8.45594 1.40481M7.36504 3.11241L8.45594 1.40481M8.45594 1.40481C8.55823 1.38225 8.66256 1.37079 8.76585 1.37079L8.45594 1.40481Z" fill="#021555" stroke="#021555" stroke-width="0.1"/>
  </g>
</svg>