<svg xmlns="http://www.w3.org/2000/svg" width="22" height="22" viewBox="0 0 22 22" fill="none">
  <path d="M14.7684 13.9763L21.0001 20.2077L20.2078 21L13.9764 14.7683C12.6007 15.9611 10.8055 16.6831 8.84177 16.6831C4.51081 16.6831 1 13.1722 1 8.84177C1 4.5108 4.51091 1 8.84177 1C13.1723 1 16.6831 4.5109 16.6831 8.84177C16.6831 10.8055 15.9611 12.6007 14.7683 13.9764L14.7684 13.9763ZM8.84176 15.5629C12.5538 15.5629 15.563 12.5537 15.563 8.84168C15.563 5.12964 12.5538 2.12003 8.84176 2.12003C5.12972 2.12003 2.12012 5.12964 2.12012 8.84168C2.12012 12.5537 5.12972 15.5629 8.84176 15.5629Z" fill="#27374D" stroke="#27374D"/>
</svg>