<svg width="34" height="28" viewBox="0 0 34 28" fill="none" xmlns="http://www.w3.org/2000/svg">
<path d="M32.7377 0.346808C31.9734 -0.226083 30.891 -0.0739268 30.3159 0.690311L28.6491 2.9081C28.6491 2.9081 28.6467 2.9104 28.6456 2.91156L12.8329 23.9679L2.64077 17.6465C1.83157 17.1451 0.761871 17.3917 0.260448 18.2044C-0.24328 19.0159 0.0057024 20.081 0.817201 20.5847L12.3534 27.7406C12.6369 27.9159 12.9528 28 13.264 28C13.7908 28 14.3095 27.7591 14.6473 27.3095L31.0616 5.45556C31.0616 5.45556 31.0628 5.45441 31.064 5.45325L33.0812 2.76747C33.6552 2.00439 33.5008 0.919698 32.7377 0.346808Z" fill="white"/>
</svg>
