<svg xmlns="http://www.w3.org/2000/svg" width="32" height="32" viewBox="0 0 32 32" fill="none">
  <rect width="32" height="32" rx="4" fill="white"/>
  <path fill-rule="evenodd" clip-rule="evenodd" d="M22.436 21.9954C22.436 23.1985 21.4131 24.1738 20.1469 24.1738H11.0109C9.74571 24.1738 8.72171 23.1985 8.72171 21.9954V12.1862H12.1503V14.3658C12.1503 14.6666 12.4063 14.9107 12.7217 14.9107C13.0371 14.9107 13.2931 14.6666 13.2931 14.3658V12.1862H17.8646V14.3658C17.8646 14.6666 18.1206 14.9107 18.436 14.9107C18.7514 14.9107 19.0074 14.6666 19.0074 14.3658V12.1862H22.436V21.9954ZM13.2931 10.0067C13.2931 8.80244 14.316 7.82709 15.5789 7.82709C16.8417 7.82709 17.8646 8.80244 17.8646 10.0067V11.0964H13.2931V10.0067ZM19.0074 11.0964V10.0067C19.0074 8.20088 17.4726 6.7373 15.5789 6.7373C13.6851 6.7373 12.1503 8.20088 12.1503 10.0067V11.0964H7.57886V21.9954C7.57886 23.8 9.116 25.2636 11.0109 25.2636H20.1469C22.0451 25.2636 23.5789 23.8 23.5789 21.9954V11.0964H19.0074Z" fill="black"/>
</svg>