<svg width="48" height="46" viewBox="0 0 48 46" fill="none" xmlns="http://www.w3.org/2000/svg">
<path id="Vector" d="M47.0871 38.3285L28.1634 3.08275C27.095 1.09415 25.6167 0 24.001 0C22.3853 0 20.907 1.09415 19.8386 3.08483L0.912862 38.3285C0.309 39.4538 0.00201961 40.5501 0 41.588V41.5943C0.00201961 44.2693 1.99335 46 5.07527 46H42.9247C46.0046 46 47.998 44.2693 48 41.5943C48 40.5542 47.693 39.4559 47.0871 38.3285ZM24.001 41.5298C22.3207 41.5298 20.9595 40.1278 20.9595 38.3971C20.9595 36.6665 22.3207 35.2644 24.001 35.2644C25.6813 35.2644 27.0425 36.6665 27.0425 38.3971C27.0425 40.1278 25.6813 41.5298 24.001 41.5298ZM27.0425 29.5691C27.0425 31.2997 25.6813 32.7017 24.001 32.7017C22.3207 32.7017 20.9595 31.2997 20.9595 29.5691V12.254C20.9595 10.5234 22.3207 9.12137 24.001 9.12137C25.6813 9.12137 27.0425 10.5234 27.0425 12.254V29.5691Z" fill="white"/>
</svg>
